<?xml version="1.0" encoding="utf-8"?>
<!-- Generator: Adobe Illustrator 14.0.0, SVG Export Plug-In . SVG Version: 6.00 Build 43363)  -->
<!DOCTYPE svg PUBLIC "-//W3C//DTD SVG 1.1//EN" "http://www.w3.org/Graphics/SVG/1.1/DTD/svg11.dtd">
<svg version="1.1" id="Layer_1" xmlns="http://www.w3.org/2000/svg" xmlns:xlink="http://www.w3.org/1999/xlink" x="0px" y="0px"
	 width="40px" height="40px" viewBox="0 0 40 40" enable-background="new 0 0 40 40" xml:space="preserve">
<path fill="#204488" d="M5.333,23.676l1.534-4.616v4.616h2.289v-7.35h-3.09l-1.488,3.675L3.09,16.326H0v7.35h2.289V19.06
	l1.545,4.616H5.333z M29.934,20.818c0.713-0.057,1.426-0.544,1.426-1.346v-1.654v-0.161c-0.083-0.829-0.703-1.276-1.437-1.334
	h-5.889l0.001,7.352h2.288v-2.857h0.911l1.488,2.857h2.632l-1.771-2.857H29.934z M29.299,18.912c0,0.159-0.039,0.299-0.324,0.299
	h-2.651v-1.443h2.655c0.322,0,0.32,0.212,0.32,0.345V18.912z M16.023,17.773v-1.447h-5.952v7.35l6.031-0.001l0.002-1.445h-3.738
	l0-1.575h3.656v-1.443h-3.656v-1.438H16.023z M18.884,17.773h-2.175v-1.447h6.638v1.447h-2.175v5.903h-2.289V17.773z M38.569,16.326
	h-4.864c-0.73,0.059-1.348,0.431-1.43,1.264v4.754c0.082,0.832,0.699,1.273,1.43,1.332h4.864c0.731-0.059,1.349-0.5,1.431-1.332
	v-4.754C39.918,16.757,39.301,16.385,38.569,16.326L38.569,16.326z M37.711,21.9c-0.01,0.083-0.041,0.301-0.324,0.328h-2.479
	c-0.282-0.027-0.334-0.245-0.345-0.328v-3.84c0.011-0.083,0.05-0.259,0.332-0.287h2.493c0.281,0.028,0.313,0.205,0.322,0.287V21.9z"
	/>
</svg>
